<svg xmlns="http://www.w3.org/2000/svg" width="20" height="20" viewBox="0 0 20 20" fill="none"><path d="M1.66675 7.08337H10.8334" stroke="#ffffff" stroke-width="1.3" stroke-miterlimit="10" stroke-linecap="round" stroke-linejoin="round"></path><path d="M5 13.75H6.66667" stroke="#ffffff" stroke-width="1.3" stroke-miterlimit="10" stroke-linecap="round" stroke-linejoin="round"></path><path d="M8.75 13.75H12.0833" stroke="#ffffff" stroke-width="1.3" stroke-miterlimit="10" stroke-linecap="round" stroke-linejoin="round"></path><path d="M18.3334 9.44164V13.4249C18.3334 16.3499 17.5917 17.0833 14.6334 17.0833H5.36675C2.40841 17.0833 1.66675 16.3499 1.66675 13.4249V6.57497C1.66675 3.64997 2.40841 2.91663 5.36675 2.91663H11.0667" stroke="#ffffff" stroke-width="1.3" stroke-linecap="round" stroke-linejoin="round"></path><path d="M14.1667 2.70801H16.7751C17.3501 2.70801 17.8167 3.23301 17.8167 3.74967C17.8167 4.32467 17.3501 4.79134 16.7751 4.79134H14.1667V2.70801Z" stroke="#ffffff" stroke-miterlimit="10" stroke-linecap="round" stroke-linejoin="round"></path><path d="M14.1667 4.79138H17.1417C17.8001 4.79138 18.3334 5.25805 18.3334 5.83305C18.3334 6.40805 17.8001 6.87472 17.1417 6.87472H14.1667V4.79138Z" stroke="#ffffff" stroke-miterlimit="10" stroke-linecap="round" stroke-linejoin="round"></path><path d="M15.6335 6.87476V7.91642" stroke="#ffffff" stroke-miterlimit="10" stroke-linecap="round" stroke-linejoin="round"></path><path d="M15.6335 1.66638V2.70805" stroke="#ffffff" stroke-miterlimit="10" stroke-linecap="round" stroke-linejoin="round"></path><path d="M15.1585 2.70801H13.3335" stroke="#ffffff" stroke-miterlimit="10" stroke-linecap="round" stroke-linejoin="round"></path><path d="M15.1585 6.87476H13.3335" stroke="#ffffff" stroke-miterlimit="10" stroke-linecap="round" stroke-linejoin="round"></path></svg>