<svg xmlns="http://www.w3.org/2000/svg" width="20" height="20" viewBox="0 0 20 20" fill="none"><path d="M18.275 5.6333L15.4667 16.9083C15.2667 17.75 14.5167 18.3333 13.65 18.3333H2.70003C1.44169 18.3333 0.541706 17.0999 0.916706 15.8916L4.42503 4.625C4.6667 3.84167 5.39171 3.29993 6.20838 3.29993H16.4584C17.25 3.29993 17.9084 3.78326 18.1834 4.44993C18.3417 4.80826 18.375 5.21663 18.275 5.6333Z" stroke="#ffffffff" stroke-width="2" stroke-miterlimit="10"></path><path d="M13.3333 18.3333H17.3166C18.3916 18.3333 19.2332 17.425 19.1582 16.35L18.3333 5" stroke="#ffffffff" stroke-width="2" stroke-miterlimit="10" stroke-linecap="round" stroke-linejoin="round"></path><path d="M8.06665 5.31663L8.93332 1.71667" stroke="#ffffffff" stroke-width="2" stroke-miterlimit="10" stroke-linecap="round" stroke-linejoin="round"></path><path d="M13.6499 5.32501L14.4332 1.70837" stroke="#ffffffff" stroke-width="2" stroke-miterlimit="10" stroke-linecap="round" stroke-linejoin="round"></path><path d="M6.41675 10H13.0834" stroke="#ffffffff" stroke-width="2" stroke-miterlimit="10" stroke-linecap="round" stroke-linejoin="round"></path><path d="M5.58325 13.3334H12.2499" stroke="#ffffffff" stroke-width="2" stroke-miterlimit="10" stroke-linecap="round" stroke-linejoin="round"></path></svg>