<svg xmlns="http://www.w3.org/2000/svg" width="20" height="20" viewBox="0 0 20 20" fill="none"><path d="M7.47493 18.3333H12.4749C16.6416 18.3333 18.3083 16.6666 18.3083 12.5V7.49996C18.3083 3.33329 16.6416 1.66663 12.4749 1.66663H7.47493C3.30827 1.66663 1.6416 3.33329 1.6416 7.49996V12.5C1.6416 16.6666 3.30827 18.3333 7.47493 18.3333Z" stroke="#ffffff" stroke-width="1.25" stroke-linecap="round" stroke-linejoin="round"></path><path d="M1.6416 10.5835L6.6416 10.5668C7.2666 10.5668 7.9666 11.0418 8.19993 11.6251L9.14993 14.0251C9.3666 14.5668 9.70827 14.5668 9.92493 14.0251L11.8333 9.18346C12.0166 8.7168 12.3583 8.70013 12.5916 9.1418L13.4583 10.7835C13.7166 11.2751 14.3833 11.6751 14.9333 11.6751H18.3166" stroke="#ffffff" stroke-width="1.25" stroke-linecap="round" stroke-linejoin="round"></path></svg>