<svg xmlns="http://www.w3.org/2000/svg" width="20" height="20" viewBox="0 0 20 20" fill="none"><g clip-path="url(#clip0_186_1058)"><path d="M12.9167 10.8334C12.1431 10.8334 11.4013 11.1407 10.8543 11.6876C10.3073 12.2346 10 12.9765 10 13.75V14.5834C10 15.3569 10.3073 16.0988 10.8543 16.6458C11.4013 17.1928 12.1431 17.5 12.9167 17.5C13.6902 17.5 14.4321 17.1928 14.9791 16.6458C15.526 16.0988 15.8333 15.3569 15.8333 14.5834V13.0834" stroke="#ffffff" stroke-width="1.3" stroke-linecap="round" stroke-linejoin="round"></path><path d="M7.08341 10.8334C7.85696 10.8334 8.59883 11.1407 9.14581 11.6876C9.69279 12.2346 10.0001 12.9765 10.0001 13.75V14.5834C10.0001 15.3569 9.69279 16.0988 9.14581 16.6458C8.59883 17.1928 7.85696 17.5 7.08341 17.5C6.30987 17.5 5.568 17.1928 5.02102 16.6458C4.47404 16.0988 4.16675 15.3569 4.16675 14.5834V13.0834" stroke="#ffffff" stroke-width="1.3" stroke-linecap="round" stroke-linejoin="round"></path><path d="M14.5834 13.3333C15.357 13.3333 16.0988 13.026 16.6458 12.4791C17.1928 11.9321 17.5001 11.1902 17.5001 10.4167C17.5001 9.64312 17.1928 8.90125 16.6458 8.35427C16.0988 7.80729 15.357 7.5 14.5834 7.5H14.1667" stroke="#ffffff" stroke-width="1.3" stroke-linecap="round" stroke-linejoin="round"></path><path d="M15.8333 7.75V5.41667C15.8333 4.64312 15.526 3.90125 14.9791 3.35427C14.4321 2.80729 13.6902 2.5 12.9167 2.5C12.1431 2.5 11.4013 2.80729 10.8543 3.35427C10.3073 3.90125 10 4.64312 10 5.41667" stroke="#ffffff" stroke-width="1.3" stroke-linecap="round" stroke-linejoin="round"></path><path d="M5.41667 13.3333C4.64312 13.3333 3.90125 13.026 3.35427 12.4791C2.80729 11.9321 2.5 11.1902 2.5 10.4167C2.5 9.64312 2.80729 8.90125 3.35427 8.35427C3.90125 7.80729 4.64312 7.5 5.41667 7.5H5.83333" stroke="#ffffff" stroke-width="1.3" stroke-linecap="round" stroke-linejoin="round"></path><path d="M4.16675 7.75V5.41667C4.16675 4.64312 4.47404 3.90125 5.02102 3.35427C5.568 2.80729 6.30987 2.5 7.08341 2.5C7.85696 2.5 8.59883 2.80729 9.14581 3.35427C9.69279 3.90125 10.0001 4.64312 10.0001 5.41667V13.75" stroke="#ffffff" stroke-width="1.3" stroke-linecap="round" stroke-linejoin="round"></path></g><defs><clipPath id="clip0_186_1058"><rect width="20" height="20" fill="white"></rect></clipPath></defs></svg>